# xmcd CD database file
#
# Track frame offsets:
#	150
#	32222
#	54693
#	83638
#	107213
#	127988
#	146409
#	167398
#	188398
#	210123
#
# Disc length: 3107 seconds
#
# Revision: 0
# Processed by: cddbd v1.5PL3 Copyright (c) Steve Scherf et al.
# Submitted via: CDex 1.50beta9
#
DISCID=760c210a
DTITLE=ASSAI - Contemplaciones
DYEAR=1999
DGENRE=Jazz
TTITLE0=Preludios de Lluvia
TTITLE1=Sueños de Angeles
TTITLE2=Raices
TTITLE3=Mestizo
TTITLE4=Orion
TTITLE5=Amasando la Tierra
TTITLE6=Sol de los Venados
TTITLE7=Migraciones
TTITLE8=Bajo las Sombras
TTITLE9=Senderos
EXTD=YEAR: 1999
EXTT0=
EXTT1=
EXTT2=
EXTT3=
EXTT4=
EXTT5=
EXTT6=
EXTT7=
EXTT8=
EXTT9=
PLAYORDER=
